<svg width="20" height="41" viewBox="0 0 20 41" fill="none" xmlns="http://www.w3.org/2000/svg">
<rect x="0.5" y="0.5" width="19" height="24.4915" rx="9.5" stroke="white"/>
<line x1="10" y1="3.03391" x2="10" y2="9.40679" stroke="white"/>
<path d="M9.29289 34.5376C9.68342 34.9281 10.3166 34.9281 10.7071 34.5376L17.0711 28.1737C17.4616 27.7831 17.4616 27.15 17.0711 26.7594C16.6805 26.3689 16.0474 26.3689 15.6569 26.7594L10 32.4163L4.34315 26.7594C3.95262 26.3689 3.31946 26.3689 2.92893 26.7594C2.53841 27.15 2.53841 27.7831 2.92893 28.1737L9.29289 34.5376ZM9 33.0339V33.8305H11V33.0339H9Z" fill="white"/>
<path d="M9.29289 40.5376C9.68342 40.9281 10.3166 40.9281 10.7071 40.5376L17.0711 34.1737C17.4616 33.7831 17.4616 33.15 17.0711 32.7594C16.6805 32.3689 16.0474 32.3689 15.6569 32.7594L10 38.4163L4.34315 32.7594C3.95262 32.3689 3.31946 32.3689 2.92893 32.7594C2.53841 33.15 2.53841 33.7831 2.92893 34.1737L9.29289 40.5376ZM9 39.0339V39.8305H11V39.0339H9Z" fill="white"/>
</svg>
